<svg width="26" height="21" viewBox="0 0 26 21" fill="none" xmlns="http://www.w3.org/2000/svg">
<path d="M4.97466 0.294109C4.89855 0.207555 4.80617 0.137102 4.70287 0.0868328C4.59958 0.0365636 4.48742 0.00747825 4.3729 0.0012626C4.25837 -0.00495305 4.14377 0.0118245 4.03572 0.0506229C3.92768 0.0894213 3.82834 0.149469 3.74346 0.227285C3.65859 0.305102 3.58987 0.399139 3.54128 0.503948C3.4927 0.608756 3.46521 0.722251 3.46043 0.837854C3.45564 0.953457 3.47364 1.06887 3.51339 1.1774C3.55314 1.28593 3.61385 1.38543 3.69199 1.47011L5.77633 3.78387C1.84166 6.22004 0.14949 9.97539 0.0747397 10.1459C0.0254622 10.2577 0 10.3787 0 10.5011C0 10.6235 0.0254622 10.7445 0.0747397 10.8563C0.112656 10.9426 1.03024 12.9952 3.07016 15.0532C5.78824 17.7943 9.22133 19.2435 13 19.2435C14.942 19.2547 16.8644 18.8513 18.6409 18.0599L21.0243 20.7059C21.1004 20.7924 21.1927 20.8629 21.296 20.9132C21.3993 20.9634 21.5115 20.9925 21.626 20.9987C21.7405 21.005 21.8551 20.9882 21.9632 20.9494C22.0712 20.9106 22.1706 20.8505 22.2555 20.7727C22.3403 20.6949 22.409 20.6009 22.4576 20.4961C22.5062 20.3912 22.5337 20.2777 22.5385 20.1621C22.5433 20.0465 22.5253 19.9311 22.4855 19.8226C22.4458 19.7141 22.3851 19.6146 22.3069 19.5299L4.97466 0.294109ZM10.1021 8.58298L14.6163 13.5941C13.9365 13.9549 13.1572 14.0777 12.4007 13.9432C11.6443 13.8088 10.9535 13.4246 10.4369 12.8511C9.92023 12.2777 9.60704 11.5473 9.54644 10.7748C9.48585 10.0023 9.68129 9.2313 10.1021 8.58298ZM13 17.4948C9.6655 17.4948 6.75241 16.2718 4.34091 13.8608C3.35108 12.8684 2.50923 11.7363 1.84166 10.5C2.34974 9.5393 3.97149 6.85067 6.97124 5.10305L8.92125 7.26161C8.16631 8.23707 7.7775 9.45038 7.82354 10.6871C7.86958 11.9238 8.3475 13.1043 9.17283 14.0198C9.99817 14.9354 11.1178 15.5271 12.3337 15.6904C13.5497 15.8537 14.7838 15.5781 15.8178 14.9122L17.4135 16.6828C16.0052 17.2279 14.5084 17.5033 13 17.4948ZM13.65 7.06488C13.4242 7.0214 13.2247 6.8892 13.0955 6.69735C12.9663 6.5055 12.9179 6.26972 12.961 6.04189C13.0041 5.81405 13.1351 5.61282 13.3253 5.48247C13.5155 5.35211 13.7492 5.3033 13.975 5.34678C15.0796 5.56282 16.0853 6.13331 16.8422 6.97317C17.5992 7.81303 18.0667 8.87724 18.1751 10.0071C18.1965 10.238 18.1261 10.468 17.9794 10.6465C17.8327 10.825 17.6218 10.9374 17.3929 10.959C17.3659 10.9606 17.3387 10.9606 17.3117 10.959C17.0951 10.96 16.8859 10.879 16.7255 10.7322C16.5651 10.5853 16.465 10.3832 16.445 10.1656C16.3721 9.41405 16.0606 8.70635 15.5571 8.14771C15.0535 7.58906 14.3847 7.2093 13.65 7.06488ZM25.922 10.8563C25.8765 10.959 24.7791 13.4105 22.308 15.6434C22.2236 15.7221 22.1245 15.7831 22.0164 15.8228C21.9084 15.8625 21.7936 15.8801 21.6788 15.8746C21.5639 15.8691 21.4513 15.8407 21.3475 15.7908C21.2437 15.741 21.1507 15.6708 21.074 15.5844C20.9974 15.498 20.9385 15.397 20.9009 15.2874C20.8632 15.1778 20.8476 15.0618 20.8548 14.946C20.8621 14.8303 20.8921 14.7171 20.9432 14.6132C20.9942 14.5092 21.0652 14.4166 21.1521 14.3406C22.3644 13.2418 23.3828 11.9431 24.1638 10.5C23.4947 9.26254 22.651 8.12972 21.6591 7.13702C19.2476 4.72817 16.3345 3.50517 13 3.50517C12.2974 3.50431 11.5959 3.5617 10.9027 3.67676C10.7899 3.69688 10.6744 3.69426 10.5626 3.66905C10.4509 3.64385 10.3452 3.59656 10.2517 3.52992C10.1582 3.46328 10.0787 3.37861 10.0178 3.28079C9.95692 3.18298 9.91584 3.07397 9.89695 2.96004C9.87806 2.84612 9.88173 2.72956 9.90775 2.61707C9.93377 2.50459 9.98162 2.39843 10.0485 2.30471C10.1155 2.21099 10.2001 2.13158 10.2976 2.07105C10.3951 2.01053 10.5036 1.9701 10.6167 1.9521C11.4044 1.82088 12.2016 1.75544 13 1.75647C16.7787 1.75647 20.2118 3.20571 22.9298 5.9479C24.9698 8.00591 25.8873 10.0595 25.9253 10.1459C25.9745 10.2577 26 10.3787 26 10.5011C26 10.6235 25.9745 10.7445 25.9253 10.8563H25.922Z" fill="#545454"/>
</svg>
