<svg width="39" height="39" viewBox="0 0 39 39" fill="none" xmlns="http://www.w3.org/2000/svg">
<path d="M27.75 18C27.75 19.6317 27.2661 21.2267 26.3596 22.5834C25.4531 23.9402 24.1646 24.9976 22.6571 25.622C21.1497 26.2464 19.4909 26.4098 17.8905 26.0915C16.2902 25.7731 14.8202 24.9874 13.6664 23.8336C12.5126 22.6798 11.7269 21.2098 11.4085 19.6095C11.0902 18.0091 11.2536 16.3503 11.878 14.8429C12.5024 13.3354 13.5598 12.0469 14.9166 11.1404C16.2733 10.2339 17.8683 9.75 19.5 9.75C21.6873 9.75248 23.7843 10.6225 25.3309 12.1691C26.8775 13.7157 27.7475 15.8127 27.75 18ZM39 19.5C39 23.3567 37.8563 27.1269 35.7137 30.3336C33.571 33.5404 30.5255 36.0397 26.9623 37.5156C23.3992 38.9915 19.4784 39.3777 15.6957 38.6253C11.9131 37.8729 8.43855 36.0157 5.71143 33.2886C2.9843 30.5615 1.12711 27.0869 0.374696 23.3043C-0.377716 19.5216 0.00844905 15.6008 1.48436 12.0377C2.96027 8.47451 5.45963 5.42903 8.66639 3.28634C11.8731 1.14365 15.6433 0 19.5 0C24.67 0.00545966 29.6268 2.06167 33.2826 5.71745C36.9383 9.37322 38.9945 14.33 39 19.5ZM36 19.5C35.9976 17.2791 35.5473 15.0815 34.6761 13.0387C33.8049 10.9958 32.5307 9.14961 30.9296 7.6105C29.3286 6.07139 27.4335 4.87098 25.3579 4.08105C23.2823 3.29112 21.0686 2.92791 18.8494 3.01312C10.0181 3.35437 2.97563 10.71 3.00001 19.5469C3.00848 23.5697 4.49217 27.4498 7.17001 30.4519C8.26055 28.8701 9.64583 27.5135 11.25 26.4562C11.3868 26.3659 11.5494 26.3229 11.7129 26.3337C11.8765 26.3445 12.032 26.4087 12.1556 26.5162C14.1941 28.2794 16.7992 29.2497 19.4944 29.2497C22.1896 29.2497 24.7947 28.2794 26.8331 26.5162C26.9568 26.4087 27.1123 26.3445 27.2758 26.3337C27.4394 26.3229 27.602 26.3659 27.7388 26.4562C29.345 27.5129 30.7322 28.8696 31.8244 30.4519C34.5154 27.4388 36.002 23.5398 36 19.5Z" fill="#21409A"/>
</svg>
